HIERARCHY
ROOT Hips
{
   OFFSET 0.00000 0.00000 0.00000
   CHANNELS 6 Xposition Yposition Zposition Zrotation Xrotation Yrotation
   JOINT RightUpLeg
   {
      OFFSET -8.945800 -8.667070 0.101652
      CHANNELS 3 Zrotation Xrotation Yrotation
      JOINT RightLeg
      {
         OFFSET 0.000000 -44.422697 1.372700
         CHANNELS 3 Zrotation Xrotation Yrotation
         JOINT RightFoot
         {
            OFFSET 0.253549 -42.092399 -1.460590
            CHANNELS 3 Zrotation Xrotation Yrotation
            JOINT RightToes
            {
               OFFSET 0.040000 -4.415090 8.499099
               CHANNELS 3 Zrotation Xrotation Yrotation
               End Site
               {
                  OFFSET -0.080000 -0.137448 9.779790
               }
            }
         }
      }
   }
   JOINT Spine
   {
      OFFSET 0.000000 11.890501 0.000000
      CHANNELS 3 Zrotation Xrotation Yrotation
      JOINT Spine1
      {
         OFFSET 0.000000 25.657401 0.127663
         CHANNELS 3 Zrotation Xrotation Yrotation
         JOINT HEad
         {
            OFFSET 0.000000 8.734161 0.011341
            CHANNELS 3 Zrotation Xrotation Yrotation
            End Site
            {
               OFFSET -0.290000 12.774200 2.513950
            }
         }
         JOINT LeftShoulder1
         {
            OFFSET 8.990000 -0.362252 -0.220000
            CHANNELS 3 Zrotation Xrotation Yrotation
            JOINT LeftArm
            {
               OFFSET 10.282700 -0.003380 0.322123
               CHANNELS 3 Zrotation Xrotation Yrotation
               JOINT LeftForeArm
               {
                  OFFSET 32.766900 0.099144 -1.424340
                  CHANNELS 3 Zrotation Xrotation Yrotation
                  JOINT LeftHand
                  {
                     OFFSET 27.564301 0.085362 1.022160
                     CHANNELS 3 Zrotation Xrotation Yrotation
                     End Site
                     {
                        OFFSET 16.744301 -0.600000 1.502910
                     }
                  }
               }
            }
         }
         JOINT RightShoulder
         {
            OFFSET -8.990000 -0.362252 -0.220000
            CHANNELS 3 Zrotation Xrotation Yrotation
            JOINT RightArm
            {
               OFFSET -10.282700 -0.003380 0.322123
               CHANNELS 3 Zrotation Xrotation Yrotation
               JOINT RightForeArm
               {
                  OFFSET -32.897098 0.099144 -1.424340
                  CHANNELS 3 Zrotation Xrotation Yrotation
                  JOINT RightHand
                  {
                     OFFSET -27.492101 0.085362 1.022160
                     CHANNELS 3 Zrotation Xrotation Yrotation
                     End Site
                     {
                        OFFSET -16.631201 -0.600000 1.502910
                     }
                  }
               }
            }
         }
      }
   }
   JOINT LeftUpLeg
   {
      OFFSET 8.945800 -8.667070 0.101652
      CHANNELS 3 Zrotation Xrotation Yrotation
      JOINT LeftLeg
      {
         OFFSET 0.000000 -44.422697 1.372700
         CHANNELS 3 Zrotation Xrotation Yrotation
         JOINT LeftFoot
         {
            OFFSET -0.253549 -42.092399 -1.460590
            CHANNELS 3 Zrotation Xrotation Yrotation
            JOINT LeftToes
            {
               OFFSET -0.040000 -4.415090 8.499099
               CHANNELS 3 Zrotation Xrotation Yrotation
               End Site
               {
                  OFFSET 0.080000 -0.047448 9.779790
               }
            }
         }
      }
   }
}
MOTION
Frames: 6
Frame Time: 0.016667
-168.906972 102.766913 -383.792757 0.777302 33.274868 179.032058 -15.033299 20.378274 -5.951161 0.992657 39.312141 -23.487555 -26.893190 4.888404 48.487704 1.477832 -12.158320 -33.711188 0.596256 22.296581 2.100632 5.738872 38.857400 -11.544836 -4.999970 -5.447266 5.663685 -8.084044 -2.880286 -25.514913 -137.175798 -59.040743 -151.524810 -34.391007 17.665921 -30.208072 -4.041641 10.969082 -18.524518 -3.083431 49.338551 47.152457 109.691301 177.937875 204.111160 -20.541982 249.070880 49.488740 4.319677 6.879171 48.773373 15.530646 1.334816 -129.610954 -12.940900 -20.907600 146.180870 -14.324179 35.370326 15.145922 -35.210937 -12.527046 -0.631888
-170.007818 102.978066 -384.784044 0.514889 30.782720 178.256941 -16.070844 18.055923 -6.290582 1.167495 37.888415 -21.466344 -26.499223 4.805402 48.675241 1.560047 -11.816372 -33.447535 -0.376951 20.164395 1.183050 5.989871 36.915274 -12.379185 -4.937818 -6.583320 5.142234 -8.819346 -3.442067 -23.669244 -135.508781 -64.687076 -148.989758 -29.783859 8.324938 -32.262562 -5.171663 12.718815 -12.293375 -9.654040 48.653268 49.576573 110.514237 179.215708 203.875327 -22.025974 249.442934 49.396642 10.802938 9.318161 48.678488 15.112072 0.760919 -126.258069 -11.462180 -20.147750 144.920345 -12.036862 34.875106 14.452096 -35.075494 -13.277200 -0.646328
-171.177499 103.194741 -385.880999 0.760135 28.495624 175.687669 -16.862224 15.281242 -6.737520 0.194528 36.518177 -18.353102 -25.988767 4.764918 48.583928 1.744279 -11.227558 -33.160907 -1.090875 17.130077 0.603259 5.205860 34.073471 -13.603427 -4.658821 -8.040503 4.409723 -9.100767 -2.505966 -20.838315 -133.145495 -74.504380 -144.741312 -27.740318 -0.821028 -34.370273 -7.556259 14.374954 -1.041486 -19.146313 46.346010 50.680096 111.053733 181.179838 202.617575 -23.483485 247.529689 45.386850 16.992010 13.759048 45.614250 15.167263 -0.750972 -122.571829 -12.104740 -20.929235 144.245604 -8.478993 34.582283 13.559437 -35.033440 -13.797088 -0.180647
-172.451169 103.381747 -387.087320 0.631960 24.377872 171.803436 -18.452086 10.861503 -6.091098 -0.757703 34.010736 -13.420705 -25.833481 4.393930 48.831252 2.066366 -10.239565 -32.517790 -3.297679 14.015876 3.889379 5.309422 34.120797 -12.353577 -3.957571 -9.770806 3.369171 -9.373921 -1.355487 -22.055354 -124.958830 -85.035077 -134.981299 -29.253656 -12.697952 -36.777519 -19.926392 12.517853 14.165592 -28.297901 48.554650 47.277873 110.991640 189.071698 202.591115 -25.802354 243.776773 41.363578 22.418185 19.994388 34.000521 14.952215 -4.661367 -117.213641 -14.450459 -22.542589 144.640867 -3.576776 35.462827 12.098482 -35.006540 -13.957714 0.546071
-173.749368 103.733996 -388.374323 -0.410998 18.905091 164.759380 -20.866988 4.137003 -5.099290 -1.104755 31.516542 -8.707431 -25.969004 3.812638 48.700352 2.356278 -9.349463 -31.968304 -8.178749 9.195405 6.740395 4.999648 32.717067 -12.269713 -3.304824 -12.375464 2.571493 -9.938176 -0.790257 -22.163959 -105.615557 -96.674026 -114.915050 -31.444039 -26.687549 -35.534667 -29.546596 12.078440 14.987336 -30.137885 46.718477 46.029065 107.940464 182.752038 204.445990 -29.722514 241.960872 38.428748 5.659010 20.554529 50.117691 15.924928 -8.602838 -110.528061 -15.491612 -23.289540 144.412807 -0.371038 35.950376 10.829567 -34.960091 -14.130299 1.873117
-175.051191 104.140623 -389.634546 -2.980378 13.689154 158.733979 -23.799833 -2.888372 -4.861565 -0.174434 29.461966 -5.416332 -26.411341 3.068687 48.241684 2.645778 -8.555923 -31.448964 -11.920470 5.702674 8.435709 5.376318 33.644149 -11.434430 -4.407034 -14.272718 2.191298 -9.072199 2.009607 -22.377172 -78.814646 -103.355809 -88.881996 -36.442382 -35.157275 -30.888646 -30.611634 18.230885 15.584548 -28.802747 43.302925 47.075542 107.625914 179.721852 204.840078 -31.019267 232.833636 36.443567 19.046980 27.146401 27.588247 16.221447 -12.614407 -105.426524 -15.710045 -23.399834 143.778091 2.026688 36.409290 9.821039 -35.009798 -13.722394 3.660765
